<svg width="118" height="44" viewBox="0 0 118 44" fill="none" xmlns="http://www.w3.org/2000/svg">
<circle cx="22" cy="22" r="22" fill="#91AFFF"/>
<path d="M49.2344 30H47.3281V21.1875H49.2344V30ZM49.4062 18.375C49.4062 18.6875 49.2969 18.9531 49.0781 19.1719C48.8594 19.3802 48.5938 19.4844 48.2812 19.4844C47.9688 19.4844 47.7031 19.375 47.4844 19.1562C47.276 18.9375 47.1719 18.6771 47.1719 18.375C47.1719 18.0625 47.2812 17.7969 47.5 17.5781C47.7188 17.3594 47.9792 17.25 48.2812 17.25C48.5938 17.25 48.8594 17.3594 49.0781 17.5781C49.2969 17.7969 49.4062 18.0625 49.4062 18.375ZM55.6562 25.5781L59.1562 30H57L54.4375 26.625V24.4531L56.625 21.1875H58.75L55.6562 25.5781ZM51.8906 30V17.8594H53.7969V30H51.8906Z" fill="black"/>
<path d="M22.459 12.2871V28.6895H31.0664V31H19.3613V12.2871H22.459Z" fill="black"/>
<rect x="34" y="21" width="7" height="2" fill="black"/>
</svg>
